# xmcd
#
# Track frame offsets:
#	150
#	14745
#	30212
#	47977
#	59327
#	72982
#	90915
#	100645
#	120132
#	129917
#	148370
#	163197
#
# Disc length: 2415 seconds
#
# Revision: 2
# Processed by: cddbd v1.4b42PL1 Copyright (c) Steve Scherf et al.
# Submitted via: EasyCDDAExtractor 4.5.0.2
#
DISCID=9a096d0c
DTITLE=The Rice Brothers - Rice Brothers 2
DYEAR=1994
DGENRE=Bluegrass
TTITLE0=Walk On Boy
TTITLE1=Jared's Rag
TTITLE2=Lonesome Highway
TTITLE3=That's When I'll Stop Loving You
TTITLE4=Road to Columbus
TTITLE5=Darcy Farrow
TTITLE6=Sawin' on the Strings
TTITLE7=All that You Ask
TTITLE8=Bill Cheatham
TTITLE9=Old Time Riverboat Man
TTITLE10=Buttons and Bows
TTITLE11=Southern Accents
EXTD=
EXTT0=
EXTT1=
EXTT2=
EXTT3=
EXTT4=
EXTT5=
EXTT6=
EXTT7=
EXTT8=
EXTT9=
EXTT10=
EXTT11=
PLAYORDER=
